<svg xmlns="http://www.w3.org/2000/svg" xmlns:xlink="http://www.w3.org/1999/xlink" width="143" height="32" version="1.1" viewBox="0 0 143 32"><defs><path id="path-1" d="M0 .794h22.47V25.84H0z"/><path id="path-3" d="M0 32h142.19V0H0z"/></defs><g id="Croma-Pages" fill="none" fill-rule="evenodd" stroke="none" stroke-width="1"><g id="03_Detail-Page" transform="translate(-75 -64)"><g id="Top-part-Copy"><g id="Croma_Logo" transform="translate(75 64)"><g id="Group-32"><g id="Group-3" transform="translate(0 5.899)"><mask id="mask-2" fill="#fff"><use xlink:href="#path-1"/></mask><path id="Fill-1" fill="#FFF" d="M22.47 17.057c-.267 2.172-.99 3.962-2.136 5.393-1.868 2.321-4.349 3.47-7.59 3.386-4.237-.08-6.525-1.634-9.158-4.173-2.253-2.153-3.587-5.662-3.587-8.307 0-1.803.458-2.93 1.26-4.845.876-2.01 1.87-2.988 3.244-4.261C7.019 1.88 9.958.794 13.086.794c2.517 0 4.617.624 6.257 1.846 1.334 1.015 1.984 2.229 1.984 3.643 0 .79-.268 1.438-.725 1.97-.497.52-1.106.79-1.793.79-.726 0-1.336-.276-1.833-.844a2.873 2.873 0 0 1-.761-1.988c0-.79.418-1.625 1.181-2.515l.192-.518c0-.984-1.526-1.392-4.541-1.469-3.129-.096-4.96.736-6.18 2.117-1.258 1.466-1.413 4.476-1.413 8.68v2.712c0 3.048.077 5.276.803 6.826.877 1.923 3.013 2.995 6.065 2.995 2.518 0 4.579-.679 6.22-2.073 1.602-1.399 2.632-3.361 3.088-5.909h.84Z" mask="url(#mask-2)"/></g><path id="Fill-4" fill="#FFF" d="M32.963 13.568c.343-1.423.878-2.644 1.563-3.659 1.45-2.107 3.32-3.166 5.532-3.166 1.183 0 2.099.319 2.824.941.687.619 1.068 1.423 1.068 2.45 0 .782-.23 1.431-.686 1.923-.42.508-.993.727-1.718.727s-1.333-.22-1.793-.713c-.458-.483-.723-1.094-.723-1.869 0-.905.456-1.686 1.333-2.319-.037-.134-2.86.454-4.234 1.781-.648.65-1.183 1.282-1.526 1.901-.344.616-.687 1.548-1.07 2.774-.418 1.219-.57 3.002-.57 5.355v10.35h5.074v.992H23.77v-.992h4.502V8.749h-4.502v-.955h5.76c1.564 0 2.709-.521 3.434-1.541v7.315Z"/><path id="Fill-6" fill="#FFF" d="M56.082 6.49c2.632 0 5.227 1.05 7.668 3.137 2.976 2.594 4.502 5.707 4.502 9.381 0 3.36-1.258 6.334-3.814 8.926-2.519 2.503-5.38 3.785-8.585 3.785-3.434 0-6.37-1.302-8.928-3.879a14.003 14.003 0 0 1-2.86-4.121c-.687-1.536-1.03-3.055-1.03-4.54 0-1.666.42-3.339 1.258-5.012.838-1.648 2.023-3.11 3.51-4.361 2.595-2.198 5.38-3.316 8.28-3.316m6.83 16.917v-8.393c0-1.713-.078-2.935-.268-3.674-.153-.7-.573-1.378-1.146-2.02-1.297-1.31-3.128-1.97-5.57-1.97-2.557 0-4.463.616-5.646 1.86-1.258 1.221-1.869 3.12-1.869 5.732v8.307c0 2.815.61 4.797 1.869 5.974.458.463 1.26.86 2.328 1.158a11.94 11.94 0 0 0 3.356.483c1.298 0 2.48-.194 3.472-.576 1.068-.384 1.83-.907 2.288-1.563.803-1.11 1.185-2.884 1.185-5.318"/><path id="Fill-8" fill="#FFF" d="M77.332 12.651c.572-1.781 1.678-3.238 3.32-4.371 1.679-1.132 3.547-1.694 5.645-1.694 2.71 0 4.771.837 6.105 2.534.687.903 1.107 2.163 1.298 3.852.685-1.98 1.793-3.533 3.356-4.668 1.526-1.111 3.359-1.68 5.42-1.68 2.63 0 4.69.799 6.102 2.422.648.737 1.07 1.565 1.258 2.409.23.862.307 2.27.307 4.261v14.328h4.502v.993h-13.848v-.993h4.54v-17.66c0-3.101-1.336-4.634-3.932-4.634-2.44 0-4.464 1.193-6.065 3.59-1.068 1.685-1.64 3.11-1.64 4.315v14.39h4.462v.992H84.43v-.993h4.579V11.51c0-1.242-.305-2.189-.917-2.866-.65-.713-1.526-1.073-2.67-1.073-1.717 0-3.396.663-4.96 1.999-1.526 1.354-2.557 3.04-3.13 5.096v15.38h4.427v.992H68.176v-.993h4.465V8.75h-4.465v-.954h5.609c1.906.006 3.051-.523 3.547-1.602v6.458Z"/><mask id="mask-4" fill="#fff"><use xlink:href="#path-3"/></mask><path id="Fill-10" fill="#FFF" d="M118.459 2.55h18.274V0H118.46v2.55Zm13.735 14.955v-5.731c0-1.343-.19-2.289-.533-2.853-.383-.584-1.068-1.008-2.099-1.282-.84-.194-1.87-.297-3.128-.297-1.984 0-3.473.281-4.58.863-1.03.543-1.563 1.193-1.563 1.944 0 .298.228.634.648.97.763.602 1.221 1.304 1.221 2.102 0 .773-.267 1.4-.687 1.877-.456.483-1.068.713-1.754.713-.8 0-1.411-.268-1.87-.806-.496-.542-.763-1.227-.763-2.072 0-1.785.915-3.306 2.746-4.59 1.833-1.289 3.969-1.933 6.485-1.933 2.938 0 6.106.52 8.356 1.966 1.297.766 1.717 1.47 2.062 2.196.305.71.418 1.625.418 2.839v10.323c.077 2.942.305 4.67.38 5.131.23.984.956 1.416 1.794 1.366.88-.068 1.41-.507 1.91-2.382h.953c-.916 3.344-2.443 3.737-4.58 3.745-1.448.007-2.86-.47-3.66-1.117-.801-.688-1.336-1.612-1.527-2.862-.762 1.266-1.945 2.251-3.473 2.93-1.524.698-2.976 1.05-4.999 1.05-2.897 0-5.033-.611-6.408-1.832-1.335-1.14-2.02-2.499-2.02-3.98 0-1.282.495-2.55 1.41-3.758a8.208 8.208 0 0 1 3.549-2.659c1.45-.572 2.936-1.015 5.112-1.354a39.565 39.565 0 0 1 6.257-.507h.343Zm0 .9h-.343c-4.96 0-8.24.618-9.844 1.812-1.105.82-1.602 2.278-1.602 4.419 0 2.04.342 3.494 1.068 4.35.725.834 1.945 1.273 3.663 1.273a8.759 8.759 0 0 0 4.35-1.114c1.257-.741 2.175-1.725 2.708-2.939v-7.801Z" mask="url(#mask-4)"/></g><path id="Path" fill="#00E9BF" d="M118.459 2.55h18.274V0H118.46z"/></g></g></g></g></svg>